# xmcd
#
# Track frame offsets:
#	182
#	12598
#	25700
#	39656
#	51987
#	65351
#	78824
#	92249
#	105463
#	117553
#	131126
#	143197
#	155241
#	168035
#	182189
#	194606
#	208616
#	219831
#	233359
#	247124
#	259539
#	272345
#	284700
#	295440
#
# Disc length: 4099 seconds
#
# Revision: 1
# Processed by: cddbd v1.5.2PL0 Copyright (c) Steve Scherf et al.
# Submitted via: audiograbber 1.83.01
#
DISCID=66100118
DTITLE=Freddie Mitchell - The Chronological Freddie Mitchell 1949-1950
DYEAR=2002
DGENRE=Rhythm and Blues
TTITLE0=Slider
TTITLE1=The Derby
TTITLE2=Doby's Boogie
TTITLE3=Hog Head
TTITLE4=Pony Express
TTITLE5=Indiana Express
TTITLE6=Jingle Bells Boogie
TTITLE7=Auld Lang Shine Boogie
TTITLE8=Freddie's Calypso
TTITLE9=Frenesi
TTITLE10=I Told You We Were Through
TTITLE11=Idaho Boogie
TTITLE12=Easter Parade
TTITLE13=Airmail Boogie
TTITLE14=Rockin' With Coop
TTITLE15=Boogie Blues
TTITLE16=Till Tom Boogie
TTITLE17=Fish Market Boogie
TTITLE18=Alamo Boogie
TTITLE19=Sugar Foot Rag
TTITLE20=One O'clock Boogie
TTITLE21=Two O'clock Boogie
TTITLE22=Music Maker's Boogie
TTITLE23=Summertime Boogie
EXTD=
EXTT0=
EXTT1=
EXTT2=
EXTT3=
EXTT4=
EXTT5=
EXTT6=
EXTT7=
EXTT8=
EXTT9=
EXTT10=
EXTT11=
EXTT12=
EXTT13=
EXTT14=
EXTT15=
EXTT16=
EXTT17=
EXTT18=
EXTT19=
EXTT20=
EXTT21=
EXTT22=
EXTT23=
PLAYORDER=
